<?xml version="1.0" encoding="UTF-8"?>
<svg id="Layer_1" data-name="Layer 1" xmlns="http://www.w3.org/2000/svg" xmlns:xlink="http://www.w3.org/1999/xlink" viewBox="0 0 2048 2048">
  <defs>
    <style>
      .cls-1 {
        opacity: .9;
      }

      .cls-2 {
        isolation: isolate;
        opacity: .9;
        stroke: #8b5725;
        stroke-linecap: round;
        stroke-miterlimit: 4;
        stroke-width: 48px;
      }

      .cls-2, .cls-3 {
        fill: none;
      }

      .cls-4 {
        fill: #7a4b1f;
      }

      .cls-5 {
        fill: #c88a45;
      }

      .cls-6 {
        fill: #006838;
      }

      .cls-7 {
        clip-path: url(#clippath);
      }
    </style>
    <clipPath id="clippath">
      <circle class="cls-3" cx="1024" cy="1024" r="916.67"/>
    </clipPath>
  </defs>
  <g>
    <circle class="cls-4" cx="1024" cy="1024" r="1000"/>
    <circle class="cls-5" cx="1024" cy="1024" r="916.67"/>
    <g class="cls-7">
      <g>
        <g>
          <line class="cls-2" x1="756.69" y1="-1346.11" x2="3080.48" y2="2232.22"/>
          <line class="cls-2" x1="533.04" y1="-1200.87" x2="2856.83" y2="2377.45"/>
          <line class="cls-2" x1="309.39" y1="-1055.64" x2="2633.19" y2="2522.69"/>
          <line class="cls-2" x1="85.75" y1="-910.4" x2="2409.54" y2="2667.93"/>
          <line class="cls-2" x1="-137.9" y1="-765.16" x2="2185.9" y2="2813.16"/>
          <line class="cls-2" x1="-361.54" y1="-619.93" x2="1962.25" y2="2958.4"/>
          <line class="cls-2" x1="-585.19" y1="-474.69" x2="1738.61" y2="3103.64"/>
          <line class="cls-2" x1="-808.83" y1="-329.45" x2="1514.96" y2="3248.88"/>
          <line class="cls-2" x1="-1032.48" y1="-184.22" x2="1291.31" y2="3394.11"/>
        </g>
        <g>
          <line class="cls-2" x1="-1346.11" y1="1291.31" x2="2232.22" y2="-1032.48"/>
          <line class="cls-2" x1="-1200.88" y1="1514.96" x2="2377.45" y2="-808.83"/>
          <line class="cls-2" x1="-1055.64" y1="1738.61" x2="2522.69" y2="-585.19"/>
          <line class="cls-2" x1="-910.4" y1="1962.25" x2="2667.93" y2="-361.54"/>
          <line class="cls-2" x1="-765.16" y1="2185.9" x2="2813.16" y2="-137.9"/>
          <line class="cls-2" x1="-619.93" y1="2409.54" x2="2958.4" y2="85.75"/>
          <line class="cls-2" x1="-474.69" y1="2633.19" x2="3103.64" y2="309.39"/>
          <line class="cls-2" x1="-329.45" y1="2856.83" x2="3248.88" y2="533.04"/>
          <line class="cls-2" x1="-184.22" y1="3080.48" x2="3394.11" y2="756.69"/>
        </g>
      </g>
    </g>
  </g>
  <g>
    <g class="cls-1">
      <path class="cls-6" d="M918.43,1636c-18.65,0-36.46-6.65-51.53-19.23-15.26-12.75-26.53-30.78-32.6-52.16-10.7-37.86-16.43-95.49-22.49-156.5-8.77-88.25-18.72-188.28-45.43-226.52-8.39-11.99-23.83-24.07-37.82-34.3-35.5-25.89-83.04-51.19-129.02-75.66-58.09-30.92-118.15-62.89-157.95-97.87-23.75-20.88-34.12-51.24-27.74-81.21,6.7-31.46,30.72-57.17,62.69-67.1,51.29-15.93,117.55-19.53,181.63-23.01,50.42-2.74,102.55-5.57,144.99-14.47,45.49-9.54,61.33-19.69,89.2-57.17,29.31-39.46,56.26-87.74,82.33-134.43,19.13-34.28,38.92-69.72,59.44-101.27,1.9-2.92,4.36-6.88,7.22-11.47,16.27-26.13,30.59-48.39,40.97-56.02l4.37-3.21.34.07c12.81-8.29,26.26-12.49,40.04-12.49,19.68,0,39.22,8.96,55.03,25.22,14.52,14.94,25.13,35.11,29.89,56.8,11.3,51.65,16.49,108.78,21.51,164.04,4.63,51.01,9.43,103.76,19,151.34,9.03,44.92,20.54,62.43,58.63,89.24,36.65,25.79,82.67,49.71,127.18,72.85,56.67,29.46,115.27,59.92,158.65,95.96,29.22,24.29,43.39,57.7,37.92,89.38-4.88,28.27-25.36,50.97-56.18,62.28-44.32,16.29-117.66,21.07-188.59,25.7-48.39,3.16-94.09,6.14-128.17,12.48-72.48,13.51-82.2,25.42-121.66,86.39-18.79,28.99-37.97,64.18-58.29,101.44-31.42,57.64-63.91,117.25-97.33,157.34-18.01,21.62-41.53,33.53-66.23,33.53Z"/>
      <path class="cls-4" d="M1127.07,424c34.81,0,64.6,33.37,73.2,72.6,21.54,98.5,20.39,215.38,40.46,315.18,9.8,48.75,23.18,68.32,63.49,96.69,83.7,58.9,208.58,104.68,285.06,168.22,49.15,40.86,47.76,108.23-14.73,131.17-72.07,26.48-229.47,21.77-314.82,37.64-75.3,14.04-88.11,27.65-129.54,91.67-48.56,74.91-101.04,193.17-154.76,257.62-16.66,20-37.13,29.21-57.01,29.21-31.38,0-61.31-22.94-72.57-62.66-26.39-93.4-22.56-319.24-69.63-386.62-9.8-14-26.81-27.04-40.58-37.11-80.89-59-216.01-111.22-286.12-172.86-45.8-40.26-26.53-110.09,30.59-127.84,90.13-27.99,228.51-16.86,325.53-37.19,48.34-10.13,66.51-21.6,96.37-61.76,51.51-69.34,94.09-162.34,142.2-236.31,9.84-15.16,33.53-55.76,45.23-64.36l.12.03c12.66-9.26,25.4-13.32,37.52-13.32M1127.07,400c-14.57,0-28.72,3.94-42.2,11.74l-.93-.2-8.73,6.41c-12.14,8.92-25.92,30.22-44.05,59.34-2.82,4.54-5.26,8.45-7.11,11.29-20.72,31.86-40.61,67.49-59.84,101.94-25.88,46.36-52.64,94.29-81.48,133.13-26.22,35.26-39.25,43.61-82.03,52.58-41.55,8.71-93.21,11.51-143.18,14.23-64.81,3.52-131.83,7.16-184.54,23.53-18.23,5.66-34.46,15.91-46.93,29.62-12,13.19-20.28,29.25-23.94,46.44-7.3,34.27,4.49,68.93,31.55,92.72,40.84,35.91,101.54,68.21,160.23,99.45,45.61,24.28,92.77,49.38,127.59,74.78,8.64,6.32,26.67,19.5,35.06,31.48,24.91,35.66,34.69,134.03,43.32,220.82,6.12,61.56,11.9,119.7,22.88,158.57,6.73,23.73,19.33,43.82,36.45,58.12,17,14.2,38.03,22.02,59.22,22.02,28.32,0,55.11-13.44,75.45-37.85,34.17-41,66.95-101.13,98.65-159.28,20.2-37.05,39.28-72.05,57.81-100.65,39.1-60.42,46.68-68.61,113.8-81.13,33.37-6.2,78.72-9.16,126.74-12.3,71.78-4.68,146-9.53,191.95-26.41,34.95-12.83,58.24-38.89,63.87-71.5,3.05-17.67.7-36.37-6.78-54.09-7.34-17.36-19.54-33.46-35.29-46.56-44.37-36.87-103.55-67.63-160.79-97.38-44.15-22.95-89.81-46.68-125.81-72.01-35.75-25.16-45.3-39.69-53.77-81.79-9.44-46.95-14.21-99.37-18.81-150.06-5.05-55.62-10.28-113.14-21.73-165.51-5.23-23.86-16.95-46.09-33.01-62.61-18.09-18.61-40.69-28.86-63.64-28.86h0Z"/>
    </g>
    <path class="cls-6" d="M1089.55,437.32c49-35.86,99.12,6.39,110.72,59.28,21.54,98.5,20.39,215.38,40.46,315.18,9.8,48.75,23.18,68.32,63.49,96.69,83.7,58.9,208.58,104.68,285.06,168.22,49.15,40.86,47.76,108.23-14.73,131.17-72.07,26.48-229.47,21.77-314.82,37.64-75.3,14.04-88.11,27.65-129.54,91.67-48.56,74.91-101.04,193.17-154.76,257.62-42.96,51.56-111.19,31.43-129.59-33.45-26.39-93.4-22.56-319.25-69.63-386.62-9.8-14-26.81-27.04-40.58-37.11-80.89-59-216.01-111.22-286.12-172.86-45.8-40.26-26.53-110.09,30.59-127.84,90.13-27.99,228.51-16.86,325.53-37.19,48.34-10.13,66.51-21.6,96.37-61.76,51.51-69.34,94.09-162.34,142.19-236.31,9.84-15.16,33.53-55.76,45.23-64.36l.12.03Z"/>
  </g>
</svg>